<?xml version="1.0" encoding="iso-8859-1"?>
<!-- Generator: Adobe Illustrator 19.0.0, SVG Export Plug-In . SVG Version: 6.00 Build 0)  -->
<svg version="1.1" id="Capa_1" xmlns="http://www.w3.org/2000/svg" xmlns:xlink="http://www.w3.org/1999/xlink" x="0px" y="0px"
	 viewBox="0 0 397.2 397.2" style="enable-background:new 0 0 397.2 397.2;" xml:space="preserve">
<g>
	<g>
		<path style="fill:#ffffff;" d="M284.2,178l-58-33.6l-57.6-33.2c-5.6-3.2-12-4-17.6-2.4c-5.6,1.6-10.8,5.2-14,10.8
			c-1.2,1.6-1.6,3.6-2.4,5.6c-0.4,1.2-0.4,2.8-0.8,4.4c0,0.4,0,1.2,0,1.6v68v68c0,6.4,2.8,12.4,6.8,16.4c4.4,4.4,10,6.8,16.4,6.8
			c3.6,0,11.2-3.2,13.2-4.4l56.8-32.8h0.4l0.4-0.4l58.8-34c5.6-3.2,9.2-8.4,10.8-14.4c0.4-1.2,0.4-2.8,0.4-4.4
			C297.8,186.8,284.2,178,284.2,178z M276.2,201.6l-58,33.6c-0.4,0-0.8,0.4-0.8,0.4l-56.8,32.8c-0.4,0.4-2.4,1.2-3.2,1.2
			s-1.6-0.4-2.4-0.8c-0.4-0.4-0.8-1.6-0.8-2.4v-67.6v-67.6v-0.4c0-0.4,0-0.4,0-0.8c0,0,0-0.4,0.4-0.4c0,0,0.4-0.4,0.4-0.8
			c0.4-0.4,1.2-0.8,1.6-1.2c0.8,0,1.6,0,2,0c0.4,0.4,0.8,0.4,1.2,0.8l56.8,32.8c0.4,0.4,0.8,0.4,0.8,0.4h0.4l58,33.6
			c0.8,0.4,2.4,1.6,2.4,2.8C278.2,199.6,277,201.2,276.2,201.6z"/>
	</g>
</g>
<g>
</g>
<g>
</g>
<g>
</g>
<g>
</g>
<g>
</g>
<g>
</g>
<g>
</g>
<g>
</g>
<g>
</g>
<g>
</g>
<g>
</g>
<g>
</g>
<g>
</g>
<g>
</g>
<g>
</g>
</svg>
