<svg id="Layer_1" enable-background="new 0 0 512.003 512.003" height="512" viewBox="0 0 512.003 512.003" width="512" xmlns="http://www.w3.org/2000/svg">
<g><path fill="#fff" d="m405.897 269.934-87.242-71.82c-1.467-1.208-3.297-1.84-5.219-1.822l-19.097.32c-1.366-4.59-3.529-8.84-6.338-12.581v-176.028c0-5.216-4.91-9.021-9.94-7.761-22.531 5.632-39.556 24.073-43.374 46.981l-18.577 111.464c-.313 1.875.053 3.801 1.031 5.431l9.839 16.401c-3.234 3.413-5.878 7.387-7.758 11.769l-152.425 88.004c-4.51 2.604-5.362 8.754-1.751 12.489 16.228 16.782 40.735 22.176 62.374 14.07l93.026-34.851-19.769 224.003h-40.675c-4.418 0-8 3.582-8 8s3.582 8 8 8h192c4.418 0 8-3.582 8-8s-3.582-8-8-8h-40.675l-20.374-230.872 122.254 70.583c4.494 2.597 10.259.283 11.691-4.728 6.387-22.325-1.071-46.29-19.001-61.052zm-149.895-37.931c-13.233 0-24-10.767-24-24s10.767-24 24-24 24 10.767 24 24-10.767 24-24 24zm-5.532-182.148c2.174-13.046 10.253-24.097 21.532-30.223v151.721c-9.889-4.334-21.466-4.582-31.891-.049l-7.733-12.891zm-128.664 242.014c-12.386 4.637-25.994 3.168-36.938-3.536l131.39-75.858c1.262 11.29 7.236 21.176 15.912 27.633l-7.302 13.151zm173.458 204.134h-78.525l20.481-232.067c.295-.476 1.676-2.984 9.479-17.036 4.872 1.165 9.51 1.355 14.076.809l13.253 7.652zm-15.532-255.824c8.7-6.433 14.703-16.304 15.998-27.588l15.03-.252 84.968 69.948c10.21 8.406 15.741 20.928 15.408 33.759z"/>
<path fill="#fff" d="m136.002 60.003c0-15.439-12.561-28-28-28h-12c-4.418 0-8 3.582-8 8s3.582 8 8 8h12c6.617 0 12 5.383 12 12s-5.383 12-12 12h-76c-4.418 0-8 3.582-8 8s3.582 8 8 8h76c15.439 0 28-12.56 28-28z"/>
<path fill="#fff" d="m64.002 112.003c0 4.418 3.582 8 8 8h76c6.617 0 12 5.383 12 12s-5.383 12-12 12h-12c-4.418 0-8 3.582-8 8s3.582 8 8 8h12c15.439 0 28-12.561 28-28s-12.561-28-28-28h-76c-4.419 0-8 3.583-8 8z"/>
<path fill="#fff" d="m336.002 128.003h76c15.439 0 28-12.561 28-28s-12.561-28-28-28h-12c-4.418 0-8 3.582-8 8s3.582 8 8 8h12c6.617 0 12 5.383 12 12s-5.383 12-12 12h-76c-4.418 0-8 3.582-8 8s3.581 8 8 8z"/>
<path fill="#fff" d="m460.002 144.003h-12c-4.418 0-8 3.582-8 8s3.582 8 8 8h12c6.617 0 12 5.383 12 12s-5.383 12-12 12h-76c-4.418 0-8 3.582-8 8s3.582 8 8 8h76c15.439 0 28-12.561 28-28s-12.561-28-28-28z"/></g></svg>