<svg width="13" height="15" fill="none" xmlns="http://www.w3.org/2000/svg"><path d="M7.402 9.457v.438l.433.058c1.387.186 2.587.63 3.427 1.178.864.566 1.238 1.165 1.238 1.637 0 .259-.103.48-.34.688-.253.222-.651.421-1.205.584-1.105.326-2.673.46-4.455.46s-3.35-.134-4.455-.46c-.554-.163-.952-.362-1.204-.584-.238-.208-.341-.43-.341-.689 0-.496.379-1.115 1.243-1.685.843-.557 2.057-.998 3.478-1.162l.604-.07-.172-.537v-1.56a.446.446 0 01.011-.042l.122-.384-.35-.2a3.962 3.962 0 01-1.41-1.358 3.603 3.603 0 01-.538-1.797C3.491 1.992 4.896.5 6.5.5c1.606 0 3.012 1.496 3.012 3.477v.004a3.487 3.487 0 01-.49 1.798 3.836 3.836 0 01-1.385 1.36l-.338.196.11.376a.56.56 0 01.01.042v1.568a.574.574 0 00-.017.136z" fill="#030303" stroke="#000"/></svg>