<svg width="86" height="42" fill="none" xmlns="http://www.w3.org/2000/svg"><path d="M0 41.124L42.534 0l42.534 41.124H0zm71.232-.619h12.009l-6-5.789-6.009 5.789zm-13.88 0h12.009l-6-5.789-6.009 5.789zm-13.882 0h12.011l-6.007-5.789-6.004 5.789zm-13.906 0h12.06l-6.03-5.789-6.03 5.789zm-13.95 0h12.01l-6-5.789-6.01 5.789zm-13.8 0h12.11l-6-5.787-6.11 5.787zm34.384-6.376l6.285 6.178 6.339-6.125-6.335-6.14-6.289 6.087zm28.15-.387a.5.5 0 00-.093.65v.128l.091.049 4.643 4.567 1.365 1.155 6.324-6.11-6.191-5.971h-.363l-5.776 5.532zm-42.034.389l6.337 6.123 6.335-6.123-6.335-6.141-6.337 6.141zm27.759 0l6.434 6.121 6.335-6.121-6.335-6.139-6.434 6.139zm-41.639 0l6.333 6.121.445-.42 5.433-5.246a.583.583 0 00.16-.738.611.611 0 00-.187-.213c-1.076-1.015-2.153-2.066-3.233-3.116l-1.614-1.564-1-.965-6.337 6.141zm6.94-6.709l6.432 6.209.195-.344 5.656-5.477a.5.5 0 00.1-.613v-.13l-.1-.086-5.5-5.26a1.486 1.486 0 00-.307-.243l-.2-.121-6.276 6.065zm28.36-.356a.535.535 0 00-.206.362.6.6 0 00.189.445l5.217 5.077c.134.146.3.305.5.48l.212.193 6.331-6.117-6.738-6.464v.708l-5.505 5.316zm13.377.4l6.337 6.125 6.335-6.125-6.335-6.123-6.337 6.123zm-27.856 0l6.329 6.117.514-.459.829-.792c1.48-1.412 3.011-2.871 4.522-4.4a.567.567 0 00.247-.451.61.61 0 00-.241-.5 512.646 512.646 0 01-5-4.822l-.868-.811-6.332 6.118zm-6.94-6.757l6.337 6.121 6.335-6.121-6.335-6.143-6.337 6.143zm13.882 0l6.289 6.108 6.335-6.123-6.289-6.125-6.335 6.14zm13.88 0l6.337 6.106 6.335-6.125-6.337-6.106-6.335 6.125zm-.794-12.606a.284.284 0 01-.07.076 473.571 473.571 0 01-5.592 5.413.487.487 0 00-.105.6v.13l.1.093 5.431 5.26.48.414 6.324-6.094-6.366-6.215-.202.323zm-20.029 5.882l6.322 6.108.4-.325 5.567-5.376a.515.515 0 00.1-.652v-.13l-.1-.08-5.876-5.647-6.413 6.102zm7.331-7.045a.507.507 0 00-.018.689l5.919 5.705 6.337-6.125-6.121-5.884h-.364L36.585 6.94z" fill="#9D8665"/></svg>