<svg height="512" viewBox="0 0 512.003 512.003" width="512" xmlns="http://www.w3.org/2000/svg"><g fill="#fff"><path d="M405.897 269.934l-87.242-71.82c-1.467-1.208-3.297-1.84-5.219-1.822l-19.097.32a39.907 39.907 0 00-6.338-12.581V8.003c0-5.216-4.91-9.021-9.94-7.761a58.286 58.286 0 00-43.374 46.981L216.11 158.687a7.998 7.998 0 001.031 5.431l9.839 16.401a40.12 40.12 0 00-7.758 11.769L66.797 280.292c-4.51 2.604-5.362 8.754-1.751 12.489 16.228 16.782 40.735 22.176 62.374 14.07L220.446 272l-19.769 224.003h-40.675a8 8 0 000 16h192a8 8 0 000-16h-40.675l-20.374-230.872 122.254 70.583c4.494 2.597 10.259.283 11.691-4.728a58.29 58.29 0 00-19.001-61.052zm-149.895-37.931c-13.233 0-24-10.767-24-24s10.767-24 24-24 24 10.767 24 24-10.767 24-24 24zM250.47 49.855a42.298 42.298 0 0121.532-30.223v151.721c-9.889-4.334-21.466-4.582-31.891-.049l-7.733-12.891zM121.806 291.869a42.307 42.307 0 01-36.938-3.536l131.39-75.858c1.262 11.29 7.236 21.176 15.912 27.633l-7.302 13.151zm173.458 204.134h-78.525l20.481-232.067c.295-.476 1.676-2.984 9.479-17.036a39.493 39.493 0 0014.076.809l13.253 7.652zm-15.532-255.824c8.7-6.433 14.703-16.304 15.998-27.588l15.03-.252 84.968 69.948a42.306 42.306 0 0115.408 33.759zM136.002 60.003c0-15.439-12.561-28-28-28h-12a8 8 0 000 16h12c6.617 0 12 5.383 12 12s-5.383 12-12 12h-76a8 8 0 000 16h76c15.439 0 28-12.56 28-28z"/><path d="M64.002 112.003a8 8 0 008 8h76c6.617 0 12 5.383 12 12s-5.383 12-12 12h-12a8 8 0 000 16h12c15.439 0 28-12.561 28-28s-12.561-28-28-28h-76a8 8 0 00-8 8zm272 16h76c15.439 0 28-12.561 28-28s-12.561-28-28-28h-12a8 8 0 000 16h12c6.617 0 12 5.383 12 12s-5.383 12-12 12h-76a8 8 0 000 16zm124 16h-12a8 8 0 000 16h12c6.617 0 12 5.383 12 12s-5.383 12-12 12h-76a8 8 0 000 16h76c15.439 0 28-12.561 28-28s-12.561-28-28-28z"/></g></svg>