<svg xmlns="http://www.w3.org/2000/svg" viewBox="0 0 397.2 397.2"><path d="M284.2 178l-58-33.6-57.6-33.2c-5.6-3.2-12-4-17.6-2.4-5.6 1.6-10.8 5.2-14 10.8-1.2 1.6-1.6 3.6-2.4 5.6-.4 1.2-.4 2.8-.8 4.4v137.6c0 6.4 2.8 12.4 6.8 16.4 4.4 4.4 10 6.8 16.4 6.8 3.6 0 11.2-3.2 13.2-4.4l56.8-32.8h.4l.4-.4 58.8-34c5.6-3.2 9.2-8.4 10.8-14.4.4-1.2.4-2.8.4-4.4 0-13.2-13.6-22-13.6-22zm-8 23.6l-58 33.6c-.4 0-.8.4-.8.4l-56.8 32.8c-.4.4-2.4 1.2-3.2 1.2s-1.6-.4-2.4-.8c-.4-.4-.8-1.6-.8-2.4V130s0-.4.4-.4c0 0 .4-.4.4-.8.4-.4 1.2-.8 1.6-1.2h2c.4.4.8.4 1.2.8l56.8 32.8c.4.4.8.4.8.4h.4l58 33.6c.8.4 2.4 1.6 2.4 2.8 0 1.6-1.2 3.2-2 3.6z" fill="#fff"/></svg>