<svg xmlns="http://www.w3.org/2000/svg" viewBox="0 0 191.519 191.519"><g fill="#fff"><path d="M115.347 70.679a7.5 7.5 0 10-10.606 10.605c7.98 7.981 7.98 20.968 0 28.949a7.5 7.5 0 1010.606 10.605c13.829-13.828 13.829-36.33 0-50.159z"/><path d="M137.33 48.696a7.501 7.501 0 00-10.606 10.607c20.102 20.102 20.102 52.811 0 72.912a7.5 7.5 0 0010.606 10.607c25.95-25.95 25.95-68.175 0-94.126z"/><path d="M161.862 24.163a7.501 7.501 0 00-10.606 10.607c16.291 16.291 25.263 37.951 25.263 60.989 0 23.039-8.972 44.699-25.263 60.989a7.5 7.5 0 0010.606 10.607c19.124-19.124 29.656-44.551 29.656-71.597.001-27.044-10.532-52.47-29.656-71.595zm-76.9-4.551a7.494 7.494 0 00-8.018 1.127L29.287 61.693H7.5a7.5 7.5 0 00-7.5 7.5v53.134a7.5 7.5 0 007.5 7.5h21.787l47.657 40.954a7.5 7.5 0 0012.389-5.688V26.427a7.5 7.5 0 00-4.371-6.815zM15 76.693h9.567v38.134H15V76.693zm59.333 72.065l-34.766-29.876V72.637l34.766-29.876v105.997z"/></g></svg>